DataRate=300.000000
DataType=double
version=3
OpenSimVersion=4.2
endheader
time	ground_force_vx1	ground_force_vy1	ground_force_vz1	ground_force_px1	ground_force_py1	ground_force_pz1	ground_torque_x1	ground_torque_y1	ground_torque_z1	ground_force_vx2	ground_force_vy2	ground_force_vz2	ground_force_px2	ground_force_py2	ground_force_pz2	ground_torque_x2	ground_torque_y2	ground_torque_z2
15	-38.51799298576762	446.7446450125933	19.19864239570256	2.656666689246785	0	1.124116679243622	0	10.09155470066431	0	25.55462291169338	124.9139503005902	0.1257948037350812	2.32590351987914	0	1.231142026872179	0	18.28190250181311	0
15.00333333333333	-37.04362785553624	455.1270626436202	19.42679483525218	2.654210686405735	0	1.123175715498309	0	9.908715530767058	0	23.7564799599396	115.8566843787503	1.223188459431492	2.315900030550246	0	1.229318192785785	0	17.6637833681538	0
15.00666666666667	-35.39625232579841	464.482073381038	19.69236422460709	2.651469031141114	0	1.121808207419915	0	9.776222363306484	0	21.3668332367322	106.0973687735178	2.984782328239704	2.290760092947521	0	1.226082658786334	0	16.74173830874446	0
15.01	-33.94163506080361	474.1396528382093	20.03572737137209	2.648912312721979	0	1.120553458352338	0	9.761671230983771	0	19.0343614714524	95.73394403229022	4.506411101603168	2.261466499578213	0	1.213842147969281	0	16.01008153054801	0
15.01333333333333	-33.02536093785896	483.4100197091973	20.45008366004496	2.647101813720592	0	1.119895797819295	0	9.868885788449932	0	17.33413928969057	85.27462946475416	5.157532675195728	2.240587171256323	0	1.190367871812888	0	15.88619860357281	0
15.01666666666667	-32.86456155483882	491.9269660013209	20.8938131997314	2.646187211748995	0	1.119975183990385	0	10.08085497821222	0	16.33160422341188	75.47524201865663	5.066455758959589	2.234945045546162	0	1.163437800812382	0	16.3340910251007	0
15.02	-33.41623213635216	499.8039122758125	21.30191813632404	2.645664303935947	0	1.120498930343351	0	10.3564097421552	0	15.66804638276055	67.00287234408503	4.944510852957074	2.24281635315243	0	1.14553644245437	0	16.88631166467116	0
15.02333333333333	-34.4202349129968	507.316428562141	21.60466525001357	2.644708265064927	0	1.12101600029301	0	10.6154278682531	0	14.98104338407874	59.95361219602796	5.429333764446907	2.251097269201912	0	1.139816192063512	0	17.04339742360754	0
15.02666666666667	-35.52202496354418	514.5832410586962	21.78783367432368	2.642836300089181	0	1.121297410065208	0	10.76838277769753	0	14.12685936679444	53.54764554988204	6.510608020756371	2.230958272474821	0	1.128996918739043	0	16.63282984027221	0
15.03	-36.30912106901989	521.729632674634	21.95432087976353	2.640229413575874	0	1.121422037786984	0	10.78223809092865	0	13.08308235034677	46.46612858412032	7.526070139766995	2.141905530533375	0	1.080426021015778	0	15.83312977828961	0
15.03333333333333	-36.37059480964082	529.1736091260198	22.29476644630145	2.637404392336923	0	1.121545817436461	0	10.72370715008982	0	11.82131187067139	37.79935797548425	7.703593146576691	1.951688725736462	0	0.967402231329193	0	14.90989500423715	0
15.03666666666667	-35.51844819349745	537.4751526797407	22.94530761006366	2.634708150991407	0	1.121668453704044	0	10.71732865019564	0	10.26902104498747	27.83752005843324	6.747525114330987	1.656740208160536	0	0.7893818604369964	0	13.85277450697684	0
15.04	-33.96912200251794	546.9485919125482	23.85423610987304	2.632201280371883	0	1.121608562556067	0	10.82493280934337	0	8.303057990742186	17.94171733464756	4.979380708215458	1.280908644771412	0	0.5727453223944678	0	12.20529738611547	0
15.04333333333333	-32.22144965512349	557.5250119010086	24.81610416998092	2.629864362873335	0	1.121159678087163	0	10.9649543011639	0	5.868735578756576	9.648349706176433	3.014955560194472	0.8627728735073342	0	0.354899151467642	0	9.432168536964996	0
15.04666666666667	-30.76549032858621	568.790738999103	25.66148454592137	2.627740725654986	0	1.120313052359176	0	10.98672846983804	0	3.229554838135891	3.866278447461577	1.374316414732442	0.4579024664533109	0	0.1702091358046292	0	5.671079134759926	0
15.05	-29.9347060923524	579.9695135096766	26.40834531400153	2.625927936891009	0	1.119386120393532	0	10.84471789916607	0	0.9975542626795636	0.6774558626204782	0.3194487251410787	0.1399601423647973	0	0.04369894188955584	0	1.995545819289809	0
15.05333333333333	-29.89300984300722	590.0920504399805	27.22524649847557	2.62453810644653	0	1.118879574135267	0	10.67773312193201	0	-0.2710485928948515	-0.4630618021860149	-0.1370820399952564	-0.03410358769200005	0	-0.01622850375778429	0	-0.3464727034948082	0
15.05666666666667	-30.56835222281681	598.5357462687267	28.24963188594015	2.623613921911335	0	1.119098398134688	0	10.68489335943373	0	-0.5294096546895516	-0.4250896930501181	-0.1733725179542855	-0.06949679431316851	0	-0.02376569403958072	0	-0.9635736807343285	0
15.06	-31.61522801814907	605.447395184274	29.43086131435264	2.622982044318699	0	1.11987281366616	0	10.92887681997936	0	-0.2310361059433048	-0.0483703030322328	-0.04615162457984638	-0.03047990076973137	0	-0.007986035656752755	0	-0.4951036630049407	0
15.06333333333333	-32.59724648679081	611.5521887934881	30.55669216230788	2.622203851853099	0	1.120672975675405	0	11.29230939193198	0	0.08981210817634139	0.1692575734800968	0.05086243113242223	0.01162523514052529	0	0.005737324444852882	0	0.1091828006276826	0
15.06666666666667	-33.24192057147645	617.6389171455636	31.46767715770303	2.620750156876422	0	1.121013553584034	0	11.61633890523145	0	0.1786940599845232	0.1427789667956262	0.0588336282596252	0.02331598479408429	0	0.008018671529464267	0	0.3229916725908917	0
15.07	-33.461832815093	624.2905152152574	32.2430816863979	2.618319982485468	0	1.12077090263538	0	11.82369721717378	0	0.08673696103754573	0.01832037563140748	0.01740494184718743	0.0113159573417572	0	0.002996565179306679	0	0.1838371308343356	0
15.07333333333333	-33.19480475421294	631.8443654361865	33.12689219301549	2.615112936419592	0	1.120175873300753	0	11.90061350461878	0	-0.02537641769136006	-0.05915861491449796	-0.01687938614865934	-0.003328254372507183	0	-0.001823182076886919	0	-0.02545208835222978	0
15.07666666666667	-32.37232067669779	640.2865502899659	34.26654183914498	2.611821981060865	0	1.119566172727357	0	11.84286712986897	0	-0.06279046972481649	-0.05387503660489014	-0.02150648373746042	-0.008208563248191325	0	-0.002884218410389159	0	-0.1117377811136872	0
15.08	-31.05213171057391	649.2281824295629	35.57789929800272	2.609225184216144	0	1.119133827752409	0	11.68094540493222	0	-0.03442701189727058	-0.01075635343431155	-0.007680834537250967	-0.004495376089815358	0	-0.001251119588972922	0	-0.07116434758498985	0
15.08333333333333	-29.47664681651629	658.1975423500071	36.86438715616536	2.607643370356929	0	1.11884231393965	0	11.51659226653729	0	0.005687749996733106	0.01900256499051649	0.005038486253023768	0.0007477856798811982	0	0.0005095697216909613	0	0.002682398032258242	0
15.08666666666667	-27.98172800384814	666.9002036991739	37.99079710693605	2.606761826162199	0	1.118552459190478	0	11.46770151336922	0	0.02156885535634619	0.01968904439357411	0.007646033909063583	0.002820405372475408	0	0.001011543672622638	0	0.03776540470146315	0
15.09	-26.88571582982224	675.0415682998861	38.92300241027978	2.605976081741745	0	1.118240977231465	0	11.57210597360877	0	0.01334717166309176	0.005251053380312355	0.003214408501974686	0.0017433539122756	0	0.0005040683505949518	0	0.02702356258242052	0
15.09333333333333	-26.39409437052248	682.0871795889459	39.68084336753376	2.604871561124937	0	1.118078468503956	0	11.76934039333715	0	-0.0008053775684324113	-0.005941840404209005	-0.001424817538650041	-0.0001067682554899841	0	-0.0001293111555071826	0	0.001334039383790198	0
15.09666666666667	-26.4837660156519	687.5591933489613	40.30430350229517	2.603344491177738	0	1.118242286431992	0	11.96930965166908	0	-0.007307240319698074	-0.007099564270556384	-0.002684253137902715	-0.0009556215229368576	0	-0.0003502412671129727	0	-0.01256803833890631	0
15.1	-26.86830525151222	691.5788552167422	40.82329350447307	2.601357839884107	0	1.118662201568367	0	12.11724844193725	0	-0.005083935048237121	-0.002348653681170088	-0.001300620797628313	-0.0006641395524605776	0	-0.000198126719309339	0	-0.01010957326171037	0
15.10333333333333	-27.14011649088484	694.8589420960859	41.2186089987339	2.59879699216397	0	1.119017485723015	0	12.19773727454288	0	-0.0001490561275047542	0.001801052000330578	0.0003710433896225119	-1.89500172726942e-05	0	2.706688905386949e-05	0	-0.001281961800739249	0
15.10666666666667	-26.96199441836697	698.1324631942866	41.4394263537807	2.595686723811293	0	1.119006802872033	0	12.20272816315031	0	0.00244099616670312	0.002532120877347091	0.0009318000291034417	0.0003192711150039645	0	0.0001198204753125839	0	0.004113771371425205	0
15.11	-26.13771439248894	701.7606878601509	41.50240139966517	2.592438027784774	0	1.118594988676639	0	12.11928685532979	0	0.001908233142672149	0.0009974012281261924	0.0005135313366626461	0.0002493139676696872	0	7.640269898336138e-05	0	0.003733523725646152	0
15.11333333333334	-24.62014182560666	705.8122879514208	41.56197979490065	2.589689235441936	0	1.118006110030233	0	11.96350551376441	0	0.0002074601006264739	-0.0005224085108872186	-8.221190006247163e-05	2.692888003445151e-05	0	-2.784787406264463e-06	0	0.000738395783824133	0
